<svg width="28" height="20" viewBox="0 0 28 20" fill="none" xmlns="http://www.w3.org/2000/svg">
<g clip-path="url(#clip0_119_1485)">
<path d="M27.6241 4.15633C27.5357 3.56257 27.4325 2.97632 27.1524 2.43517C26.548 1.25517 25.5678 0.631342 24.3001 0.481022C23.1945 0.353251 22.0816 0.225479 20.9687 0.180383C18.6249 0.0901916 16.2738 0 13.9226 0C11.7189 0 9.51514 0.0601278 7.3114 0.150319C6.05107 0.202931 4.79073 0.323187 3.53777 0.481022C2.19637 0.653889 1.26033 1.43555 0.714925 2.6832C0.442222 3.30703 0.375888 3.98346 0.287444 4.65239C0.081074 6.38858 0 8.12477 0 9.87599C0 12.0406 0.081074 14.2052 0.449592 16.3472C0.751777 18.106 1.91629 19.286 3.64833 19.5039C4.74651 19.6467 5.85207 19.752 6.95762 19.8046C9.32351 19.9098 11.6894 19.9624 13.0455 20C16.9445 19.9624 19.8263 19.9399 22.7081 19.7069C23.4599 19.6467 24.2264 19.5866 24.9487 19.3912C26.3933 19.0004 27.2187 17.9782 27.5136 16.4976C27.7641 15.2274 27.8673 13.9496 27.9337 12.6569C28.0737 9.81586 28.0442 6.97482 27.6389 4.15633H27.6241ZM11.2177 14.2653V5.71214C13.6425 7.14017 16.0453 8.55317 18.4922 9.99624C16.0526 11.4243 13.6425 12.8373 11.2177 14.2578V14.2653Z" fill="white"/>
</g>
<defs>
<clipPath id="clip0_119_1485">
<rect width="28" height="20" fill="white"/>
</clipPath>
</defs>
</svg>
