<svg width="15" height="28" viewBox="0 0 15 28" fill="none" xmlns="http://www.w3.org/2000/svg">
<g clip-path="url(#clip0_119_1483)">
<path d="M10.0282 27.9998V15.7778H14.0704C14.338 14.0768 14.5915 12.4528 14.8662 10.6538C13.2817 10.6538 11.7958 10.6538 10.3028 10.6538C10.2394 10.6538 10.1831 10.6538 10.1197 10.6538C9.85915 9.1068 9.72535 7.5458 10.2817 6.0478C10.6549 5.0538 11.5986 4.7458 12.5915 4.6968C13.3662 4.6548 14.1479 4.6898 14.993 4.6898V0.370804C13.0775 0.0838043 11.162 -0.217196 9.21831 0.209804C6.33803 0.846804 4.56338 3.0938 4.4507 6.2368C4.40845 7.4548 4.4507 8.6728 4.42958 9.89081C4.42958 10.1428 4.33099 10.3948 4.27465 10.6468C4.21127 10.6468 4.15493 10.6468 4.09155 10.6468H0V15.7288H4.38732V27.9578L10.0282 27.9928V27.9998Z" fill="white"/>
</g>
<defs>
<clipPath id="clip0_119_1483">
<rect width="15" height="28" fill="white"/>
</clipPath>
</defs>
</svg>
