<svg width="27" height="27" viewBox="0 0 27 27" fill="none" xmlns="http://www.w3.org/2000/svg">
<g clip-path="url(#clip0_119_1487)">
<path d="M13.5006 19.1843C16.6399 19.1843 19.1848 16.6394 19.1848 13.5001C19.1848 10.3608 16.6399 7.81592 13.5006 7.81592C10.3613 7.81592 7.81641 10.3608 7.81641 13.5001C7.81641 16.6394 10.3613 19.1843 13.5006 19.1843Z" fill="white"/>
<path d="M19.4968 0H7.50316C3.36079 0 0 3.36079 0 7.50316V19.5039C0 23.6463 3.36079 27.0071 7.50316 27.0071H19.5039C23.6463 27.0071 27.0071 23.6463 27.0071 19.5039V7.50316C27.0071 3.36079 23.6463 0 19.5039 0H19.4968ZM13.5 20.6053C9.585 20.6053 6.39474 17.415 6.39474 13.5C6.39474 9.585 9.585 6.39474 13.5 6.39474C17.415 6.39474 20.6053 9.585 20.6053 13.5C20.6053 17.415 17.415 20.6053 13.5 20.6053ZM21.6142 6.80684C20.8326 6.80684 20.1932 6.16737 20.1932 5.38579C20.1932 4.60421 20.8326 3.96474 21.6142 3.96474C22.3958 3.96474 23.0353 4.60421 23.0353 5.38579C23.0353 6.16737 22.3958 6.80684 21.6142 6.80684Z" fill="white"/>
</g>
<defs>
<clipPath id="clip0_119_1487">
<rect width="27" height="27" fill="white"/>
</clipPath>
</defs>
</svg>
