<svg width="391" height="67" viewBox="0 0 391 67" fill="none" xmlns="http://www.w3.org/2000/svg">
<g clip-path="url(#clip0_119_1490)">
<path d="M65.1375 18.6932C64.0906 18.9866 60.2653 20.2532 55.9299 22.1066C55.7286 21.6266 55.393 21.2399 54.9367 20.8932C54.5072 20.5599 53.9166 20.2266 53.4737 20.1332C53.1918 20.0799 53.0173 20.1332 52.8831 20.2799C52.4939 20.7066 51.6617 21.6932 51.6617 22.8266C51.6617 23.0399 51.6617 23.4932 51.6617 24.0532C49.7826 24.9732 47.4606 26.1866 45.0446 27.4932C45.8633 22.7999 47.0176 18.3866 47.5948 15.9066C59.7955 8.9199 78.5731 0.973236 79.9421 0.213236C80.1434 0.106569 80.0226 -0.0400972 79.8482 -9.71858e-05C79.8079 -9.71858e-05 60.5471 5.65324 45.6083 10.0266C44.1319 8.69324 42.3736 7.58657 41.3937 6.8399C40.8569 6.42657 40.5884 6.54657 40.5884 6.81324C40.5884 6.86657 40.6555 8.61324 40.7763 11.4532C34.2263 13.3732 29.2736 14.8266 28.5354 15.0666C23.4215 16.7066 14.724 20.0799 11.3416 21.4932C8.05318 22.8799 0.778387 25.1466 0.187814 25.4132C-0.0537846 25.5332 -0.0672067 25.6266 0.0267482 25.7199C0.0938588 25.7866 0.241502 25.8132 0.389146 25.7999C0.993141 25.7599 8.52296 24.1066 17.744 25.4932C24.4282 26.5066 26.616 28.1332 29.193 27.8799C30.2668 27.7732 35.5954 23.7066 41.1119 19.9599C41.2327 22.8932 41.3669 26.1199 41.5011 29.4266C37.555 31.6132 33.7566 33.8132 31.5285 35.1999C27.1797 37.9066 24.4684 39.5066 23.1531 40.0932C22.7773 40.2532 22.9383 40.6532 23.3007 40.5466C23.596 40.4532 31.0587 37.5732 35.3404 36.5732C37.0316 36.1866 39.3133 35.5999 41.7427 34.9466C42.2528 47.0666 42.7762 58.5466 42.7762 58.7332C42.7762 59.1066 43.246 59.3199 43.3534 58.7332C43.4339 58.2532 43.3265 48.7466 43.9037 38.6932C43.9842 37.2266 44.0916 35.7466 44.199 34.2799C46.9371 33.5332 49.6618 32.7599 51.7691 32.1732C51.7691 32.1732 51.7691 32.4266 51.7959 32.8666C51.8362 34.0132 51.9033 36.1466 51.9838 38.7999C52.3059 48.5332 52.8697 65.6399 52.9636 66.4666C53.0442 67.2132 53.6482 67.0932 53.6482 66.4799C53.6482 65.0399 53.6079 54.5199 54.4401 41.7866C54.5206 40.5466 54.6145 39.2932 54.7085 38.0132C54.8561 36.1999 55.0977 33.6666 55.3528 31.1199C62.8692 28.8932 81.0024 19.7332 81.2172 18.7999C81.2843 18.5466 81.244 18.3732 81.0964 18.3332C80.5595 18.2132 69.1507 17.5199 65.1241 18.6532L65.1375 18.6932Z" fill="white"/>
<path d="M249.209 2.44L248.47 1.70667L246.752 0L230.028 16.6133H226.203V20.0667L244.511 20.0133C243.437 20.12 242.39 20.4133 241.451 20.9333C238.27 22.7067 236.122 26 236.122 29.7867C236.122 35.4267 240.9 40.0133 246.766 40.0133C252.631 40.0133 257.41 35.4267 257.41 29.7867C257.41 26 255.262 22.7067 252.081 20.9333C251.141 20.4133 250.095 20.12 249.021 20.0133L267.329 20.0667V16.6133H263.49L249.222 2.44H249.209ZM253.638 29.7867C253.638 33.52 250.551 36.56 246.752 36.56C242.954 36.56 239.867 33.52 239.867 29.7867C239.867 26.0533 242.954 23.0133 246.752 23.0133C250.551 23.0133 253.638 26.0533 253.638 29.7867ZM248.632 16.6133V12.24H244.873V16.6133H234.941L246.752 4.88L258.564 16.6133H248.632Z" fill="white"/>
<path d="M330.061 0L330.034 0.0266667L330.007 0L313.283 16.6133H309.512V20.0667L327.82 20.0133H328.128V23.7333H314.854V26.8667H341.416V29.1467H314.854V37.6933H345.174V34.56H318.612V32.28H345.174V23.7333H331.9V20.0133H332.329L350.637 20.0667V16.6133H346.798L330.061 0ZM331.94 16.6133H318.25L330.034 4.90667L341.819 16.6133H331.954H331.94Z" fill="white"/>
<path d="M223.852 52.7332H227.65V63.1332H229.449V52.7332H233.26V51.0532H223.852V52.7332Z" fill="white"/>
<path d="M221.584 54.8666C221.584 52.4399 220.094 51.0532 217.504 51.0532H212.887V63.1332H214.685V58.6532H216.887L219.88 63.1332H222.054L218.873 58.4666C220.645 57.9999 221.584 56.7599 221.584 54.8666ZM214.685 56.9866V52.7332H217.316C218.846 52.7332 219.732 53.4932 219.732 54.8399C219.732 56.1866 218.806 56.9866 217.115 56.9866H214.685Z" fill="white"/>
<path d="M203.892 51.0532L200.738 58.7466H198.98V60.3599H200.081L198.953 63.1332H200.859L201.987 60.3599H207.53L208.657 63.1332H210.577L205.597 51.0532H203.906H203.892ZM202.631 58.7466L204.738 53.5199L206.859 58.7466H202.617H202.631Z" fill="white"/>
<path d="M352.637 63.1332H360.824V61.4532H354.449V57.9599H359.871V56.2932H354.449V52.7332H360.824V51.0532H352.637V63.1332Z" fill="white"/>
<path d="M330.277 51.0532H326.559V63.1332H330.33C332.196 63.1332 333.78 62.5466 334.894 61.4532C335.994 60.3732 336.571 58.8666 336.571 57.1066C336.571 53.4799 334.048 51.0532 330.277 51.0532ZM333.498 60.2399C332.679 61.0399 331.552 61.4666 330.209 61.4666H328.344V52.7066H330.277C331.578 52.7066 332.693 53.1332 333.498 53.9332C334.303 54.7332 334.719 55.8266 334.719 57.1066C334.719 58.3866 334.29 59.4532 333.498 60.2399Z" fill="white"/>
<path d="M368.893 58.4133H372.316V60.72C371.524 61.2533 370.531 61.5333 369.35 61.5333C366.867 61.5333 365.135 59.72 365.135 57.12C365.135 54.52 366.84 52.68 369.283 52.68C370.598 52.68 371.726 53.12 372.652 53.9866L372.772 54.0933L374.061 53L373.927 52.8666C372.732 51.64 371.095 50.96 369.296 50.96C367.498 50.96 366.008 51.56 364.907 52.7066C363.847 53.8133 363.27 55.3866 363.27 57.12C363.27 58.8533 363.874 60.4666 365.001 61.5733C366.088 62.64 367.632 63.2266 369.35 63.2266C371.189 63.2266 372.907 62.6666 374.061 61.6933L374.115 61.6533V56.76H368.893V58.44V58.4133Z" fill="white"/>
<path d="M384.933 58.0799C384.933 60.1599 383.765 61.5066 381.967 61.5066C380.168 61.5066 379.041 60.1599 379.041 58.0799V51.0532H377.242V58.1866C377.242 59.7199 377.699 61.0132 378.558 61.9066C379.403 62.7732 380.584 63.2399 381.967 63.2399C384.906 63.2399 386.732 61.3066 386.732 58.1866V51.0532H384.933V58.0799Z" fill="white"/>
<path d="M343.471 51.0532L340.316 58.7466H338.558V60.3599H339.659L338.531 63.1332H340.437L341.565 60.3599H347.108L348.235 63.1332H350.155L345.175 51.0532H343.484H343.471ZM342.209 58.7466L344.316 53.5199L346.437 58.7466H342.195H342.209Z" fill="white"/>
<path d="M174.381 60.0666L167.791 51.0532H166.086V63.1332H167.898V54.2132L174.448 63.1332H176.193V51.0532H174.381V60.0666Z" fill="white"/>
<path d="M184.741 58.4133H188.164V60.72C187.372 61.2533 186.379 61.5333 185.197 61.5333C182.714 61.5333 180.983 59.72 180.983 57.12C180.983 54.52 182.687 52.68 185.13 52.68C186.446 52.68 187.573 53.12 188.499 53.9866L188.62 54.0933L189.909 53L189.774 52.8666C188.58 51.64 186.942 50.96 185.144 50.96C183.345 50.96 181.855 51.56 180.755 52.7066C179.694 53.8133 179.117 55.3866 179.117 57.12C179.117 58.8533 179.721 60.4666 180.849 61.5733C181.936 62.64 183.479 63.2266 185.197 63.2266C187.036 63.2266 188.754 62.6666 189.909 61.6933L189.962 61.6533V56.76H184.741V58.44V58.4133Z" fill="white"/>
<path d="M134.836 60.0666L128.232 51.0532H126.527V63.1332H128.339V54.2132L134.889 63.1332H136.634V51.0532H134.836V60.0666Z" fill="white"/>
<path d="M157.091 50.9331C153.548 50.9331 150.984 53.5198 150.984 57.0931C150.984 58.7998 151.588 60.3464 152.676 61.4664C153.79 62.5998 155.36 63.2264 157.091 63.2264C160.608 63.2264 163.158 60.6398 163.158 57.0931C163.158 55.3331 162.541 53.7464 161.413 52.6398C160.313 51.5464 158.783 50.9464 157.105 50.9464L157.091 50.9331ZM157.091 61.5064C155.883 61.5064 154.796 61.0531 154.018 60.2264C153.253 59.4131 152.837 58.3064 152.837 57.0931C152.837 55.8798 153.253 54.7731 154.018 53.9598C154.796 53.1198 155.897 52.6664 157.091 52.6664C158.286 52.6664 159.293 53.1064 160.071 53.8931C160.863 54.7064 161.293 55.8398 161.293 57.0931C161.293 59.6131 159.494 61.5064 157.105 61.5064H157.091Z" fill="white"/>
<path d="M144.865 56.1733L144.529 56.0533C144.449 56.0266 144.368 55.9999 144.288 55.9733C142.905 55.4799 141.818 55.0933 141.831 54.1599C141.831 53.5599 142.234 53.1999 142.583 52.9999C142.999 52.7599 143.549 52.6266 144.1 52.6266C145.12 52.6266 145.925 52.9599 146.408 53.2399C146.945 53.5466 147.24 53.8533 147.24 53.8533L148.448 52.4533L148.301 52.3333C147.026 51.4133 145.563 50.9199 144.086 50.9199C141.764 50.9333 139.952 52.3733 139.952 54.1999C139.952 56.2666 141.751 57.0533 143.925 57.7866L144.126 57.8533C144.194 57.8799 144.274 57.9066 144.341 57.9333C145.079 58.1866 145.71 58.3999 146.153 58.6933C146.636 58.9999 146.851 59.3866 146.851 59.8933C146.851 60.8666 145.804 61.5199 144.247 61.5199C142.945 61.5199 141.63 60.9466 140.811 60.0266L140.664 59.8666L139.496 61.1066L139.375 61.2266L139.496 61.3466C140.731 62.5599 142.408 63.2133 144.22 63.2133C145.402 63.2133 146.516 62.9066 147.321 62.3333C148.234 61.6933 148.717 60.7999 148.717 59.7333C148.717 57.4933 147.012 56.9066 144.838 56.1466L144.865 56.1733Z" fill="white"/>
<path d="M117.377 51.0532L114.223 58.7466H112.464V60.3599H113.565L112.438 63.1332H114.343L115.471 60.3599H121.014L122.142 63.1332H124.061L119.081 51.0532H117.39H117.377ZM116.115 58.7466L118.222 53.5199L120.343 58.7466H116.102H116.115Z" fill="white"/>
<path d="M110.612 51.0666L110.625 51.0532H108.303L103.002 57.2132V51.0532H101.203V63.1332H103.002V59.8666L104.653 57.9466L108.464 63.1199V63.1332H110.719L105.874 56.5466L110.612 51.0666Z" fill="white"/>
<path d="M273.837 56.1733L273.502 56.0533C273.421 56.0266 273.341 55.9999 273.26 55.9733C271.878 55.4799 270.79 55.0933 270.804 54.1599C270.804 53.5599 271.207 53.1999 271.556 52.9999C271.972 52.7599 272.522 52.6266 273.072 52.6266C274.092 52.6266 274.898 52.9599 275.381 53.2399C275.918 53.5466 276.213 53.8533 276.213 53.8533L277.421 52.4533L277.273 52.3333C275.998 51.4133 274.535 50.9199 273.059 50.9199C270.737 50.9333 268.925 52.3733 268.925 54.1999C268.925 56.2666 270.723 57.0533 272.898 57.7866L273.099 57.8533C273.166 57.8799 273.247 57.9066 273.314 57.9333C274.052 58.1866 274.683 58.3999 275.126 58.6933C275.609 58.9999 275.824 59.3866 275.824 59.8933C275.824 60.8666 274.777 61.5199 273.22 61.5199C271.918 61.5199 270.603 60.9466 269.784 60.0266L269.636 59.8666L268.468 61.1066L268.348 61.2266L268.468 61.3466C269.703 62.5599 271.381 63.2133 273.193 63.2133C274.374 63.2133 275.488 62.9066 276.294 62.3333C277.206 61.6933 277.689 60.7999 277.689 59.7333C277.689 57.4933 275.985 56.9066 273.81 56.1466L273.837 56.1733Z" fill="white"/>
<path d="M299.581 58.0799C299.581 60.1599 298.414 61.5066 296.615 61.5066C294.817 61.5066 293.689 60.1599 293.689 58.0799V51.0532H291.891V58.1866C291.891 59.7199 292.347 61.0132 293.206 61.9066C294.052 62.7732 295.233 63.2399 296.615 63.2399C299.555 63.2399 301.38 61.3066 301.38 58.1866V51.0532H299.581V58.0799Z" fill="white"/>
<path d="M264.132 58.0799C264.132 60.1599 262.965 61.5066 261.166 61.5066C259.367 61.5066 258.24 60.1599 258.24 58.0799V51.0532H256.441V58.1866C256.441 59.7199 256.898 61.0132 257.757 61.9066C258.602 62.7732 259.784 63.2399 261.166 63.2399C264.105 63.2399 265.931 61.3066 265.931 58.1866V51.0532H264.132V58.0799Z" fill="white"/>
<path d="M280.723 63.1332H288.91V61.4532H282.548V57.9599H287.957V56.2932H282.548V52.7332H288.91V51.0532H280.723V63.1332Z" fill="white"/>
<path d="M247.059 58.4799L242.817 51.0532H241.086V63.1332H242.885V54.5732L246.482 60.7732H247.636L251.233 54.5732V63.1332H253.032V51.0532H251.314L247.059 58.4799Z" fill="white"/>
<path d="M310.547 58.4799L306.292 51.0532H304.574V63.1332H306.373V54.5732L309.97 60.7732H311.124L314.721 54.5732V63.1332H316.52V51.0532H314.788L310.547 58.4799Z" fill="white"/>
<path d="M203.812 24.7731H207.57V7.38644V4.02644V3.93311H188.027V7.38644H203.812V24.7731Z" fill="white"/>
<path d="M218.294 1.78662H214.536V12.8H213.556V16.2533H214.536V34.2533H192.215V24.7866H188.457V37.7066H189.048H192.215H218.294V34.2533V16.2533H222.563V12.8H218.294V1.78662Z" fill="white"/>
<path d="M272.871 4.02686V28.2402H293.756V4.02686H272.871ZM289.998 7.48019V24.7869H276.629V7.48019H289.998Z" fill="white"/>
<path d="M303.754 1.78662H299.996V37.7066H303.754V1.78662Z" fill="white"/>
<path d="M372.716 18.3469H376.474V7.48019V4.02686H372.716H356.73V7.48019H372.716V18.3469Z" fill="white"/>
<path d="M390.998 12.8H386.743V1.78662H382.985V12.8H382.005V16.2533H382.985V34.2533H361.254V26.8533H357.496V34.2533V37.7066H361.254H386.743V34.2533V16.2533H390.998V12.8Z" fill="white"/>
<path d="M366.8 24.12H380.437V20.6666H366.8V13.96H363.042V20.6666H354.492V24.12H363.042H366.8Z" fill="white"/>
<path d="M103.926 28.2398H119.093V24.7864H103.926V7.38644H119.093V3.93311H100.168V4.01311V28.2398H103.926Z" fill="white"/>
<path d="M132.905 12.8H128.234V1.78662H124.476V12.8H123.496V16.2533H124.476V37.7066H128.234V16.2533H132.905V37.7066H136.663V16.2533V12.8V1.78662H132.905V12.8Z" fill="white"/>
<path d="M182.19 28.24V24.7866H142.77V28.24H160.594V37.7066H164.352V28.24H182.19Z" fill="white"/>
<path d="M173.32 22.4664H177.078V7.38644V3.93311H173.32H146.301V7.38644H173.32V22.4664Z" fill="white"/>
</g>
<defs>
<clipPath id="clip0_119_1490">
<rect width="391" height="67" fill="white"/>
</clipPath>
</defs>
</svg>
